nColumns=19
nRows=22
DataType=double
version=3
OpenSimVersion=4.5
endheader
time	ground_force_1_vx	ground_force_1_vy	ground_force_1_vz	ground_force_1_px	ground_force_1_py	ground_force_1_pz	ground_moment_1_mx	ground_moment_1_my	ground_moment_1_mz	ground_force_2_vx	ground_force_2_vy	ground_force_2_vz	ground_force_2_px	ground_force_2_py	ground_force_2_pz	ground_moment_2_mx	ground_moment_2_my	ground_moment_2_mz
0.515	26.5823192596436	702.783569335938	-129.516830444336	0.192105381730304	1.97941120341875e-17	0.375414343262711	0	-2.81537669775376	-1.7239210306491e-16	40.4525537787359	446.163452148438	23.3888634768739	0.310744972209796	4.92425320812682e-17	-0.105514853099601	0	0.239037019327842	1.46367960298783e-17
0.516	26.0000228881836	698.302062988281	-130.34196472168	0.192184132957252	1.98188233020602e-17	0.376367431466686	0	-2.69531545723547	-1.6504047236979e-16	41.9155957334533	443.891082763672	26.850369308507	0.310974236547409	4.92896148025744e-17	-0.104927118456327	0	0.383385156826088	2.34755702573837e-17
0.517	25.8440399169922	693.3896484375	-131.017059326172	0.192360372118899	1.98208204239074e-17	0.377691469826105	7.27595761418343e-15	-2.67566637835941	-1.63837313292202e-16	42.7726149170072	442.736968994141	30.6585322908154	0.310740559425437	4.92973539704325e-17	-0.103696854824689	0	0.338624236311876	2.07347543556528e-17
0.518	25.1835041046143	688.133422851562	-131.514175415039	0.192459781734776	1.98387068180442e-17	0.378756016676616	0	-2.61990847837608	-1.60423126605114e-16	43.4980538775837	443.468658447266	34.4161387524241	0.310718663795659	4.934600864891e-17	-0.103134792190232	0	0.368282113976288	2.25507756032141e-17
0.519	24.8384037017822	681.670227050781	-131.709350585937	0.192449841837525	1.98540535217498e-17	0.379862039819442	0	-2.52272105799587	-1.54472113440813e-16	44.422947424707	444.449981689453	38.4365192399363	0.311141037350002	4.93653700448539e-17	-0.10209433394728	0	0.445741885926654	2.7293818692299e-17
0.52	24.4789428710938	676.241027832031	-132.428756713867	0.192588974699387	1.98839849594424e-17	0.380729876180624	0	-2.46013340006213	-1.50639724693079e-16	43.9299209386801	445.619232177734	42.7973845207137	0.31078806562905	4.93934269556796e-17	-0.101195884239162	0	0.454479174290231	2.78288233036832e-17
0.521	24.005708694458	670.125061035156	-132.469528198242	0.192750712922282	1.98909861884327e-17	0.381972191268541	-7.27595761418343e-15	-2.40537368601982	-1.47286659266872e-16	44.1364112496592	447.978881835938	46.9632709761936	0.310933500804071	4.94220128811526e-17	-0.100306073995869	0	0.498290843948312	3.05115143542867e-17
0.522	23.3901443481445	665.387084960938	-132.790176391602	0.192905841233912	1.99032562648562e-17	0.38312845954791	0	-2.35638512435088	-1.44286975004737e-16	44.1481952194498	452.652740478516	51.2764004315125	0.310630013247118	4.94515671451662e-17	-0.099432077921059	0	0.546546938268946	3.34663479267425e-17
0.523	23.3261222839355	658.664611816406	-133.097763061523	0.192887736222913	1.99299394747296e-17	0.384049343495081	0	-2.2389207049414	-1.37094353742561e-16	43.1800501177749	455.787658691406	56.3717844509	0.310855786540896	4.94620198568013e-17	-0.0982461298223376	0	0.605315227110127	3.70648677677785e-17
0.524	22.9447689056396	651.947509765625	-132.65837097168	0.193069243706747	1.99468502538819e-17	0.385129823347419	7.27595761418343e-15	-2.17416612914289	-3.77110808663519e-15	42.5560482057278	458.835906982422	61.3597474788903	0.310818885259455	4.95063655806361e-17	-0.0976136966182505	0	0.667167329856625	4.08522167502301e-17
0.525	22.8636932373047	645.312133789062	-132.679641723633	0.193086723142184	1.99655723419165e-17	0.386180722280859	0	-2.12152388737531	-1.29905871899441e-16	41.3928542203037	463.774383544922	66.2985071571484	0.310709887088874	4.95255478844597e-17	-0.0965703135790156	0	0.611992710815033	3.74737457200571e-17
0.526	22.4893131256104	639.28173828125	-133.182601928711	0.193318947838587	1.9993204854173e-17	0.387086102943592	7.27595761418343e-15	-2.03546436717571	-1.24636246102012e-16	40.0968584527458	467.940612792969	71.5201148525871	0.310765397016794	4.95534625243201e-17	-0.0956695404097099	0	0.672284344823734	4.1165543550263e-17
0.527	22.0894832611084	631.700378417969	-133.11848449707	0.193437825832661	2.00033979481704e-17	0.388276290920096	-7.27595761418343e-15	-1.95954798277475	-3.75796651533575e-15	38.6055238733006	471.339385986328	76.5894393316404	0.310909900982746	4.95738466986244e-17	-0.0946457854049648	0	0.708525632116472	4.33846823742647e-17
0.528	22.0957851409912	624.981506347656	-133.076171875	0.1936910522166	2.00282548602476e-17	0.389227000573705	-7.27595761418343e-15	-1.95083408406991	-1.19454135836189e-16	36.7618482630941	473.885894775391	81.7882718782105	0.311044080210081	4.96202490985316e-17	-0.0940469402700888	0	0.737020507502172	4.51294902709247e-17
0.529	22.0891170501709	617.916076660156	-132.837509155273	0.193612880498409	2.00355103624702e-17	0.390465163064605	-7.27595761418343e-15	-1.74007674479842	-1.06548970789406e-16	34.9647951555941	477.112945556641	87.2703610752487	0.311324146087187	4.96411008396981e-17	-0.0930308212116855	0	0.791214481729818	4.84479141244727e-17
0.53	21.1609973907471	610.852844238281	-132.480728149414	0.193786738146321	2.00578086387562e-17	0.391457658411739	0	-1.84593827358853	-3.7510099270004e-15	33.1493881398981	481.376647949219	91.811845061585	0.311270216886023	4.96570747832054e-17	-0.0919350416721928	0	0.829501021021964	5.07922885142005e-17
0.531	20.9812717437744	603.1005859375	-131.825759887695	0.193810289244055	2.00844434992896e-17	0.392379331963553	0	-1.71083735837787	-1.04758574739958e-16	30.7444253834755	483.591949462891	96.3534724927065	0.311343671167723	4.96727481336194e-17	-0.0908343530749458	0	0.846242784462032	5.18174258646486e-17
0.532	20.8615322113037	595.175476074219	-131.610977172852	0.193989340618223	2.01209539600956e-17	0.39313972472356	0	-1.64194063437499	-1.00539867113865e-16	27.8808751485388	484.708587646484	100.086810172162	0.311047976221122	4.9702681041024e-17	-0.089966540715984	0	0.7761999314403	4.75285380768379e-17
0.533	20.0288066864014	587.078247070312	-131.170761108398	0.194158937286435	2.01390234638848e-17	0.394201281166509	0	-1.71012423839046	3.53326389835725e-15	26.1520604512886	485.982421875	103.652571114224	0.311261037632561	4.97215932992132e-17	-0.0889187474968561	0	0.759579897048026	4.65108544808271e-17
0.534	19.8568229675293	578.982666015625	-130.100799560547	0.194097454518807	2.01605785966655e-17	0.395205912968101	0	-1.4711148316908	-9.00798034904165e-17	23.6620835700876	486.841674804688	106.623367028234	0.311612422457116	4.97508223602681e-17	-0.0880394404546893	0	0.787570794502575	4.82248026294758e-17
0.535	19.3087673187256	571.578186035156	-129.289016723633	0.194443257538587	2.01783297958414e-17	0.396272667719878	0	-1.50831945403641	-9.23579295738685e-17	21.715874662742	487.867950439453	109.576723542495	0.311263500131146	4.97660475594656e-17	-0.0869314329926597	0	0.810738189047201	4.96433964081588e-17
0.536	18.2108478546143	562.272399902344	-129.355911254883	0.194521397414027	2.02156323492527e-17	0.397020124625958	0	-1.50616901836428	-9.22262533657362e-17	19.8392500848817	487.450103759766	110.874272740294	0.311704185541414	4.97890047858816e-17	-0.0859496991178208	0	0.735797396829352	4.5054596342401e-17
